<svg class="img-fluid" id="outputsvg" xmlns="http://www.w3.org/2000/svg" style="transform: none; transform-origin: 50% 50%; cursor: move;" width="919" height="919" viewBox="0 0 9190 9190"><g id="l76Aez71FqBI8NhJQf42Mty" fill="rgb(0,78,163)" style="transform: none;"><g><path id="pzYQDan6z" d="M4315 8783 c-22 -2 -107 -10 -190 -18 -922 -94 -1791 -502 -2457 -1153 -247 -242 -420 -450 -600 -727 -351 -536 -564 -1130 -645 -1795 -26 -207 -25 -783 1 -990 29 -241 80 -502 126 -655 227 -748 556 -1304 1080 -1825 768 -763 1738 -1179 2840 -1216 857 -29 1702 204 2410 664 741 481 1307 1169 1628 1977 310 782 372 1706 171 2552 -136 575 -412 1142 -779 1603 -397 498 -868 879 -1449 1169 -257 129 -502 218 -831 301 -180 46 -463 90 -703 110 -117 9 -505 11 -602 3z m470 -868 c133 -5 351 -32 460 -57 159 -35 413 -108 480 -137 11 -5 54 -21 95 -37 182 -69 500 -243 682 -373 681 -483 1163 -1201 1343 -1999 107 -476 109 -939 6 -1412 -111 -506 -368 -1025 -706 -1425 -392 -464 -905 -820 -1460 -1015 -245 -86 -391 -121 -700 -167 -165 -24 -597 -24 -770 0 -422 60 -760 164 -1118 343 -396 199 -814 540 -1098 896 -323 405 -556 895 -663 1398 -51 236 -68 407 -69 660 0 454 86 872 265 1290 504 1178 1640 1973 2914 2039 82 4 160 6 174 5 14 -2 88 -6 165 -9z"></path><path id="pPh7KNEai" d="M4295 7643 c-97 -7 -321 -45 -456 -79 -430 -105 -821 -299 -1169 -580 -138 -111 -360 -333 -465 -464 -328 -410 -540 -878 -625 -1379 -21 -124 -40 -298 -40 -362 0 -38 1 -39 38 -39 41 0 132 22 582 142 63 16 142 36 175 44 100 23 100 23 119 110 99 438 317 822 645 1136 61 59 150 136 199 172 80 60 281 186 296 186 3 0 6 -871 6 -1936 l0 -1935 -57 32 c-309 173 -576 423 -774 724 -43 66 -83 126 -89 132 -7 8 -36 13 -73 13 -34 0 -197 11 -362 25 -165 13 -353 27 -417 31 l-118 7 0 -35 c0 -87 157 -421 308 -657 161 -252 413 -531 651 -722 441 -353 1002 -589 1541 -648 189 -20 238 -23 244 -13 3 6 6 1380 6 3054 l0 3043 -57 1 c-32 0 -80 -1 -108 -3z"></path><path id="pspcwBamP" d="M4740 4596 c0 -2904 1 -3056 18 -3056 52 0 263 24 367 41 638 107 1201 402 1666 876 195 198 310 345 435 555 232 391 361 777 415 1238 16 135 16 554 0 690 -87 755 -424 1418 -971 1917 -216 197 -504 397 -563 391 l-32 -3 -3 -523 c-2 -520 -2 -522 19 -540 11 -9 59 -60 107 -112 256 -285 421 -586 517 -942 l34 -128 -575 0 -574 0 0 1248 0 1247 -77 24 c-205 63 -479 114 -670 126 l-113 7 0 -3056z m2010 -413 c-66 -329 -239 -695 -452 -956 -119 -145 -298 -311 -453 -419 -76 -53 -230 -148 -240 -148 -3 0 -5 351 -5 780 l0 780 579 0 578 0 -7 -37z"></path></g></g><g id="l3Bu9fNWwKFGB8o1lLY1Uh0" fill="rgb(252,250,252)" style="transform: none;"><g><path id="p7De6S8v5" d="M4385 9040 c-71 -4 -186 -13 -255 -19 -182 -17 -267 -32 -566 -96 -80 -17 -333 -91 -439 -128 -235 -82 -583 -244 -805 -375 -177 -104 -421 -277 -600 -426 -128 -108 -390 -367 -500 -496 -298 -351 -507 -679 -699 -1102 -187 -413 -320 -928 -363 -1413 -17 -192 -14 -632 6 -825 17 -169 43 -368 50 -379 3 -4 14 -54 26 -112 120 -589 410 -1235 768 -1706 31 -42 73 -97 92 -123 125 -170 393 -449 595 -621 430 -365 940 -655 1450 -827 330 -111 511 -155 840 -201 217 -31 311 -37 575 -40 524 -5 958 65 1490 238 304 100 776 337 1055 531 487 338 883 737 1192 1200 226 339 423 746 539 1112 47 149 81 269 94 328 100 471 126 710 117 1097 -6 303 -18 434 -59 678 -106 628 -343 1223 -696 1745 -283 418 -650 801 -1052 1097 -374 275 -806 499 -1242 643 -247 82 -554 153 -793 184 -300 38 -565 50 -820 36z m502 -290 c240 -20 523 -64 703 -110 238 -60 401 -113 596 -193 371 -152 794 -411 1100 -673 816 -699 1320 -1633 1449 -2684 82 -667 -11 -1395 -257 -2015 -442 -1115 -1359 -2000 -2488 -2402 -1009 -359 -2122 -313 -3105 129 -802 360 -1496 996 -1925 1763 -164 293 -269 544 -380 910 -46 154 -97 416 -126 655 -26 206 -26 726 -1 930 59 484 182 912 382 1327 222 460 487 828 863 1195 319 312 666 557 1067 753 497 243 961 366 1580 418 96 8 425 6 542 -3z"></path><path id="pROJvm72O" d="M4416 7949 c-410 -23 -793 -114 -1170 -278 -1005 -437 -1750 -1371 -1955 -2451 -43 -231 -54 -355 -54 -630 0 -285 16 -443 69 -690 107 -503 340 -993 663 -1398 284 -356 702 -697 1098 -896 358 -179 695 -282 1118 -343 175 -25 663 -25 830 0 210 32 331 55 445 87 582 161 1061 435 1483 849 302 295 508 583 692 963 394 819 431 1800 98 2642 -279 706 -763 1282 -1401 1667 -134 81 -372 201 -482 243 -41 16 -84 32 -95 37 -67 29 -321 102 -480 137 -96 22 -321 51 -435 57 -244 12 -279 12 -424 4z m14 -3348 c0 -1658 -2 -3017 -5 -3020 -7 -6 -61 -4 -185 10 -638 71 -1286 379 -1748 833 -237 232 -405 452 -559 731 -85 154 -201 420 -189 432 2 3 152 -7 333 -22 180 -14 381 -29 445 -32 64 -3 120 -9 125 -12 5 -3 31 -42 58 -86 195 -315 479 -588 804 -771 53 -30 102 -54 108 -54 10 0 13 399 13 1990 0 1095 -3 1990 -8 1990 -14 0 -208 -113 -287 -168 -283 -195 -544 -491 -709 -803 -85 -161 -159 -363 -202 -553 -19 -87 -19 -87 -119 -110 -33 -8 -112 -28 -175 -44 -406 -108 -551 -144 -557 -139 -6 7 16 210 37 338 85 501 297 969 625 1379 105 131 327 353 465 464 282 228 593 398 938 515 224 76 619 152 765 147 l27 -1 0 -3014z m650 2983 c165 -27 262 -49 402 -92 l88 -27 0 -1247 0 -1248 604 0 c333 0 607 3 610 8 8 13 -70 300 -109 402 -72 186 -172 367 -295 535 -66 88 -218 263 -259 297 -21 18 -21 22 -21 507 0 270 3 492 8 494 10 7 180 -103 307 -198 610 -459 1035 -1148 1164 -1886 59 -340 61 -712 5 -1044 -86 -502 -304 -986 -627 -1385 -148 -184 -400 -419 -613 -572 -414 -299 -971 -507 -1449 -543 -44 -3 -90 -8 -102 -11 l-23 -4 0 3025 0 3025 78 -6 c42 -3 147 -17 232 -30z"></path><path id="p1F6VYECkQ" d="M5568 3429 c-2 -451 1 -823 5 -826 11 -7 173 86 287 165 311 214 563 503 730 840 64 128 139 327 166 441 30 126 42 186 37 194 -2 4 -278 7 -613 7 l-610 0 -2 -821z"></path></g></g></svg>